<?xml version="1.0" encoding="utf-8"?>
<!-- Generator: Adobe Illustrator 16.0.0, SVG Export Plug-In . SVG Version: 6.00 Build 0)  -->
<!DOCTYPE svg PUBLIC "-//W3C//DTD SVG 1.1//EN" "http://www.w3.org/Graphics/SVG/1.1/DTD/svg11.dtd">
<svg version="1.1" id="Layer_1" xmlns="http://www.w3.org/2000/svg" xmlns:xlink="http://www.w3.org/1999/xlink" x="0px" y="0px"
	 width="283.464px" height="283.465px" viewBox="0 0 283.464 283.465" enable-background="new 0 0 283.464 283.465"
	 xml:space="preserve">
<g>
	<path fill="#6D6D6D" stroke="#6D6D6D" stroke-width="5" stroke-miterlimit="10" d="M143.703,262.823
		C77.026,262.757,22.894,208.564,22.72,141.712C22.547,75.242,76.928,20.84,143.744,20.642
		c66.598-0.197,121.471,54.733,121.158,121.288C264.589,208.805,210.365,262.891,143.703,262.823z M245.938,141.681
		c-0.076-56.235-45.869-102.022-102.091-102.075c-56.155-0.054-101.974,45.693-102.163,102
		c-0.188,56.188,46.092,102.46,102.267,102.253C200.268,243.65,246.013,197.818,245.938,141.681z"/>
	<path display="none" fill="#565656" d="M142.958,209.061c0-0.025,0-0.054,0-0.08c10.858,0,21.726,0.168,32.582-0.047
		c10.528-0.209,17.291-6.873,17.627-17.312c0.271-8.529-0.635-16.976-3.5-25.084c-1.963-5.558-4.807-10.617-10.078-13.672
		c-5.342-3.095-10.575-4.408-16.332-0.039c-6.855,5.203-14.813,7.698-23.604,6.707c-6.894-0.779-12.71-4.027-18.421-7.693
		c-1.641-1.055-3.885-1.823-5.788-1.705c-9.603,0.601-14.892,6.781-18.252,15.037c-3.394,8.341-4.279,17.187-4.072,26.043
		c0.234,10.023,5.713,16.052,15.141,17.556c1.967,0.313,4.001,0.271,6.005,0.276C123.832,209.073,133.395,209.061,142.958,209.061z
		 M115.993,126.996c-0.029,15.188,11.971,27.363,27.01,27.404c15.08,0.043,27.349-12.032,27.502-27.071
		c0.156-15.217-12.062-27.497-27.338-27.482C127.888,99.86,116.024,111.714,115.993,126.996z M111.41,122.823
		c-2.94,0.434-5.479,0.988-8.042,1.151c-6.245,0.396-11.753-1.967-17.117-4.839c-3.392-1.818-5.722-1.191-7.752,2.064
		c-0.8,1.283-1.668,2.731-1.82,4.176c-0.672,6.422-1.277,12.861-1.535,19.309c-0.138,3.459,2.031,5.963,4.974,7.631
		c5.593,3.168,11.732,1.863,17.689,2.002c0.289,0.011,0.648-0.272,0.87-0.518c4.777-5.25,10.853-7.943,18.146-8.691
		C112.477,138.059,110.62,130.882,111.41,122.823z M174.908,122.464c0.813,8.338-1.078,15.699-5.393,22.705
		c7.236,0.688,13.041,3.24,17.701,8.199c0.441,0.469,1.166,0.987,1.738,0.967c4.813-0.187,9.698-0.041,14.403-0.89
		c4.733-0.854,7.71-4.536,7.845-8.844c0.137-4.473,0.166-9-0.42-13.416c-0.455-3.433-1.566-6.901-3.053-10.039
		c-1.469-3.104-4.355-3.859-7.068-2.32C192.685,123.356,184.416,125.751,174.908,122.464z M184.048,117.815
		c10.146,0.027,18.269-7.939,18.343-17.996c0.073-9.969-8.146-18.215-18.175-18.236c-10.065-0.022-18.276,8.067-18.342,18.07
		C165.811,109.702,173.903,117.79,184.048,117.815z M102.027,117.815c10.15,0.068,18.192-7.684,18.312-17.65
		c0.123-10.277-7.733-18.479-17.798-18.582c-10.304-0.106-18.319,7.672-18.435,17.893
		C83.988,109.823,91.731,117.747,102.027,117.815z"/>
	<path display="none" fill="#565656" d="M142.958,209.061c-9.563,0-19.126,0.016-28.689-0.013c-2.003-0.006-4.038,0.035-6.005-0.276
		c-9.428-1.504-14.907-7.529-15.141-17.556c-0.207-8.856,0.678-17.702,4.072-26.043c3.36-8.256,8.65-14.438,18.252-15.037
		c1.903-0.118,4.147,0.65,5.788,1.705c5.711,3.666,11.527,6.914,18.421,7.693c8.788,0.991,16.745-1.504,23.602-6.707
		c5.759-4.369,10.99-3.056,16.332,0.039c5.273,3.055,8.115,8.114,10.078,13.672c2.865,8.108,3.771,16.555,3.5,25.084
		c-0.336,10.438-7.097,17.103-17.627,17.312c-10.854,0.215-21.722,0.047-32.582,0.047
		C142.958,209.007,142.958,209.032,142.958,209.061z"/>
	<path display="none" fill="#565656" d="M115.993,126.996c0.031-15.282,11.896-27.136,27.174-27.149
		c15.276-0.015,27.494,12.266,27.338,27.482c-0.153,15.039-12.422,27.114-27.502,27.071
		C127.963,154.359,115.963,142.185,115.993,126.996z"/>
	<path display="none" fill="#565656" d="M111.41,122.823c-0.79,8.059,1.067,15.235,5.411,22.284
		c-7.292,0.748-13.369,3.439-18.146,8.689c-0.221,0.242-0.581,0.525-0.87,0.52c-5.957-0.141-12.096,1.166-17.689-2.002
		c-2.943-1.668-5.112-4.172-4.974-7.631c0.258-6.449,0.863-12.889,1.535-19.311c0.151-1.444,1.02-2.893,1.82-4.176
		c2.03-3.256,4.36-3.883,7.752-2.064c5.364,2.872,10.872,5.235,17.117,4.839C105.931,123.812,108.47,123.257,111.41,122.823z"/>
	<path display="none" fill="#565656" d="M174.908,122.464c9.508,3.287,17.777,0.893,25.756-3.635
		c2.711-1.539,5.604-0.784,7.069,2.32c1.483,3.138,2.595,6.606,3.052,10.039c0.586,4.416,0.557,8.943,0.418,13.414
		c-0.132,4.31-3.104,7.992-7.842,8.844c-4.705,0.851-9.594,0.703-14.404,0.892c-0.574,0.021-1.299-0.498-1.736-0.967
		c-4.661-4.959-10.469-7.515-17.702-8.199C173.83,138.163,175.719,130.802,174.908,122.464z"/>
	<path display="none" fill="#565656" d="M184.048,117.815c-10.146-0.025-18.237-8.113-18.174-18.162
		c0.063-10.003,8.273-18.093,18.342-18.07c10.029,0.021,18.248,8.268,18.175,18.236
		C202.317,109.876,194.198,117.843,184.048,117.815z"/>
	<path display="none" fill="#565656" d="M102.027,117.815c-10.296-0.068-18.039-7.992-17.921-18.34
		c0.116-10.22,8.13-17.999,18.435-17.893c10.064,0.103,17.921,8.305,17.798,18.582C120.219,110.132,112.177,117.884,102.027,117.815
		z"/>
</g>
<g>
	<path fill="#6D6D6D" d="M145.18,260.18c-65.059,0.958-118.767-51.7-119.617-117.274C24.726,78.237,77.104,24.631,142.211,23.527
		c65.093-1.103,119.027,51.383,120.074,116.85C263.322,205.416,210.735,259.215,145.18,260.18z M211.947,224.015
		c36.2-29.465,48.522-78.332,31.327-122.336C226.645,59.12,182.863,32.076,135.52,35.12c-45.239,2.909-84.614,36.514-95.748,81.719
		c-9.813,39.838,6.833,88.413,36.568,106.719C107.028,169.483,179.69,168.028,211.947,224.015z"/>
	<path fill="#FFFFFF" d="M180.728,130.743c0.346-22.133-14.693-40.999-34.193-42.898c-17.438-1.699-35.177,13.499-38.869,33.3
		c-4.052,21.75,5.167,41.446,22.066,47.133C158.198,177.858,180.248,161.63,180.728,130.743z"/>
	<path fill="#6D6D6D" d="M181.728,130.743c-0.48,30.887-22.53,47.115-50.996,37.533c-16.898-5.688-26.118-25.383-22.066-47.132
		c3.691-19.801,21.428-34.999,38.869-33.3C167.035,89.744,182.074,108.61,181.728,130.743z"/>
</g>
</svg>
